# xmcd
#
# Track frame offsets: 
#        150
#        12573
#        24771
#        32094
#        45942
#        55440
#        64338
#        82461
#        93759
#        111657
#        122655
#        136128
#        144876
#        152649
#        165222
#        178320
#        190668
#        202266
#        215889
#        227337
#        237885
#
# Disc length: 3333 seconds
#
# Revision: 2
# Processed by: cddbd v1.5.2PL0 Copyright (c) Steve Scherf et al.
# Submitted via: ExactAudioCopyFreeDBPlugin 1.0
#
DISCID=230d0315
DTITLE=Ring Of Fire - Ring Of Fire
DYEAR=2009
DGENRE=Country
TTITLE0=June Carter Cash - Ring Of Fire
TTITLE1=Johnny Cash (Live in Prague 1972) - Ring Of Fire
TTITLE2=England Squad and the Liverpool Fans - Ring Of Fire
TTITLE3=Ray Charles - Ring Of Fire
TTITLE4=Anita Carter (Live in Dallas, Texas) - Ring Of Fire
TTITLE5=Ike Willis with Frank Zappa (Live in Syracruse NY) - Ring Of F
TTITLE5=ire
TTITLE6=The Animals (feat. Eric Burdon) Live at the Desert Inn - Ring 
TTITLE6=Of Fire
TTITLE7=Ralf Bendix (Der Treck nach Idahoe) - Der Treck nach Idahoe
TTITLE8=Grace Jones (Live at the Plantation Club Tokio) - Ring Of Fire
TTITLE9=The Jordanaires with Country Joe McDonald - Ring Of Fire
TTITLE10=Drummonds's and Skatalites (SKA) - Ring Of Fire
TTITLE11=Johnny Hill (Ring aus Feuer) - Ring Aus Feuer
TTITLE12=Lynn Anderson - Ring Of Fire
TTITLE13=Bobby Solo - Ring Of Fire
TTITLE14=The Whyhous'n Project (A New German Version) - Ring Of Fire
TTITLE15=Stan Ridgeway - Ring Of Fire
TTITLE16=The Carter Family - Ring Of Fire
TTITLE17=Mountain and Winterstone (Samba and House) - Je To Zle
TTITLE18=Ladislaw Vodicka (Je To Zle) - Ring Of Fire
TTITLE19=The Naked Truth - Ring Of Fire
TTITLE20=The Original C&W Playback of Ring Of Fire - Ring Of Fire
EXTD=
EXTT0=
EXTT1=
EXTT2=
EXTT3=
EXTT4=
EXTT5=
EXTT6=
EXTT7=
EXTT8=
EXTT9=
EXTT10=
EXTT11=
EXTT12=
EXTT13=
EXTT14=
EXTT15=
EXTT16=
EXTT17=
EXTT18=
EXTT19=
EXTT20=
PLAYORDER=
